<svg width="390" height="844" viewBox="0 0 390 844" fill="#FAFAFA" xmlns="http://www.w3.org/2000/svg">
<!-- Background -->
<rect width="390" height="844" fill="#F9F9F9"/>

<!-- Medication Bar -->
<rect x="16" y="60" width="358" height="44" rx="12" fill="#EADDFF" stroke="#D8B4FE" stroke-width="1"/>
<rect x="16" y="60" width="100" height="44" rx="12" fill="#D8B4FE"/>
<text x="32" y="87" font-family="-apple-system, system-ui, sans-serif" font-size="14" font-weight="500" fill="#000">1st dose · Concerta 36mg · 12:23</text>
<text x="280" y="87" font-family="-apple-system, system-ui, sans-serif" font-size="14" fill="#888">ends 22:23</text>

<rect x="16" y="112" width="358" height="44" rx="12" fill="#EADDFF" stroke="#D8B4FE" stroke-width="1"/>
<rect x="16" y="112" width="60" height="44" rx="12" fill="#D8B4FE"/>
<text x="32" y="139" font-family="-apple-system, system-ui, sans-serif" font-size="14" font-weight="500" fill="#000">2nd dose · Concerta 36mg · 13:22</text>
<text x="280" y="139" font-family="-apple-system, system-ui, sans-serif" font-size="14" fill="#888">ends 23:22</text>

<!-- Month Header -->
<text x="16" y="190" font-family="-apple-system, system-ui, sans-serif" font-size="18" font-weight="bold" fill="#000">JUN 2026</text>
<path d="M16 200 H90" stroke="#000" stroke-width="2"/>

<!-- UNIFIED DAILY CARD -->
<rect x="16" y="220" width="358" height="340" rx="20" fill="#FFF" stroke="#EEE" stroke-width="1"/>

<!-- Card Header -->
<text x="36" y="255" font-family="-apple-system, system-ui, sans-serif" font-size="20" font-weight="bold" fill="#000">Tuesday, 9 Jun</text>
<text x="36" y="275" font-family="-apple-system, system-ui, sans-serif" font-size="14" fill="#888">7 check-ins today</text>

<!-- Daily Mood Summary Bar -->
<rect x="36" y="295" width="318" height="12" rx="6" fill="#F3F4F6"/>
<rect x="36" y="295" width="40" height="12" rx="6" fill="#10B981"/> <!-- Good -->
<rect x="76" y="295" width="120" height="12" fill="#3B82F6"/> <!-- Neutral -->
<rect x="196" y="295" width="80" height="12" fill="#F97316"/> <!-- Low -->
<rect x="276" y="295" width="38" height="12" rx="6" fill="#EF4444"/> <!-- Rough -->

<!-- Unified Entry List -->
<g transform="translate(36, 330)">
    <!-- Entry 1 -->
    <circle cx="0" cy="5" r="5" fill="#CCC"/>
    <text x="15" y="10" font-family="-apple-system, system-ui, sans-serif" font-size="14" font-weight="500" fill="#000">13:22 · Alert</text>
    <text x="280" y="10" font-family="-apple-system, system-ui, sans-serif" font-size="12" fill="#BBB" text-anchor="end">0:00</text>
    
    <!-- Entry 2 -->
    <circle cx="0" cy="35" r="5" fill="#CCC"/>
    <text x="15" y="40" font-family="-apple-system, system-ui, sans-serif" font-size="14" font-weight="500" fill="#000">12:23 · Flat</text>
    
    <!-- Entry 3 -->
    <circle cx="0" cy="65" r="5" fill="#EF4444"/>
    <text x="15" y="70" font-family="-apple-system, system-ui, sans-serif" font-size="14" font-weight="500" fill="#EF4444">12:23 · Low</text>
    
    <!-- Entry 4 -->
    <circle cx="0" cy="95" r="5" fill="#CCC"/>
    <text x="15" y="100" font-family="-apple-system, system-ui, sans-serif" font-size="14" font-weight="500" fill="#000">12:23 · Bad mood</text>

    <!-- Entry 5 -->
    <circle cx="0" cy="125" r="5" fill="#FBBF24"/>
    <text x="15" y="130" font-family="-apple-system, system-ui, sans-serif" font-size="14" font-weight="500" fill="#D97706">12:23 · Okay</text>

    <!-- Entry 6 -->
    <circle cx="0" cy="155" r="5" fill="#EF4444"/>
    <text x="15" y="160" font-family="-apple-system, system-ui, sans-serif" font-size="14" font-weight="500" fill="#EF4444">12:21 · Low</text>
    
    <!-- Entry 7 -->
    <circle cx="0" cy="185" r="5" fill="#10B981"/>
    <text x="15" y="190" font-family="-apple-system, system-ui, sans-serif" font-size="14" font-weight="500" fill="#059669">11:25 · Good · Alert · Sharp</text>
</g>

<!-- Consolidated Tags -->
<g transform="translate(36, 535)">
    <rect x="0" y="0" width="80" height="24" rx="8" fill="#FFEDD5"/>
    <text x="10" y="17" font-family="-apple-system, system-ui, sans-serif" font-size="11" fill="#F97316">⚡ energy (3)</text>
    
    <rect x="85" y="0" width="80" height="24" rx="8" fill="#E0E7FF"/>
    <text x="95" y="17" font-family="-apple-system, system-ui, sans-serif" font-size="11" fill="#4F46E5">◎ sharp (1)</text>

    <rect x="170" y="0" width="85" height="24" rx="8" fill="#F3E8FF"/>
    <text x="180" y="17" font-family="-apple-system, system-ui, sans-serif" font-size="11" fill="#9333EA">💊 meds (2)</text>
</g>

<!-- Floating Action Button -->
<circle cx="330" cy="700" r="28" fill="#FFF" filter="drop-shadow(0px 4px 8px rgba(0,0,0,0.1))"/>
<path d="M320 690 h20 v15 h-20 z M325 695 h10 M325 700 h10" stroke="#007AFF" stroke-width="2" fill="none"/>

<!-- Tab Bar -->
<rect x="0" y="750" width="390" height="94" fill="#FFF"/>
<path d="M0 750 H390" stroke="#EEE" stroke-width="1"/>

<rect x="20" y="760" width="60" height="32" rx="16" fill="#E5F1FF"/>
<circle cx="50" cy="776" r="10" fill="#007AFF"/>
<text x="50" y="804" font-family="-apple-system, system-ui, sans-serif" font-size="10" fill="#007AFF" text-anchor="middle">Calendar</text>

<circle cx="145" cy="776" r="10" fill="#888"/>
<text x="145" y="804" font-family="-apple-system, system-ui, sans-serif" font-size="10" fill="#888" text-anchor="middle">Record</text>

<circle cx="240" cy="776" r="10" fill="#888"/>
<text x="240" y="804" font-family="-apple-system, system-ui, sans-serif" font-size="10" fill="#888" text-anchor="middle">Insights</text>

<circle cx="335" cy="776" r="10" fill="#888"/>
<text x="335" y="804" font-family="-apple-system, system-ui, sans-serif" font-size="10" fill="#888" text-anchor="middle">Settings</text>
</svg>